<svg width="48" height="48" viewBox="0 0 48 48" fill="none" xmlns="http://www.w3.org/2000/svg">
<g clip-path="url(#clip0)">
<path d="M24 48C37.2548 48 48 37.2548 48 24C48 10.7452 37.2548 0 24 0C10.7452 0 0 10.7452 0 24C0 37.2548 10.7452 48 24 48Z" fill="#EEF5FF"/>
<path d="M24 57.2812C33.3198 57.2812 40.875 49.7261 40.875 40.4062C40.875 31.0864 33.3198 23.5312 24 23.5312C14.6802 23.5312 7.125 31.0864 7.125 40.4062C7.125 49.7261 14.6802 57.2812 24 57.2812Z" fill="url(#paint0_linear)"/>
<path d="M13.79 38C18.3983 38.4137 23.0507 38.9982 27.5694 40.2422C27.8411 40.317 30.1318 40.5997 29.3992 41.4891C28.7885 42.2303 27.87 42.5874 27.0883 42.9232C25.6725 43.5315 24.2858 44.2193 22.8961 44.9139C22.6933 45.0153 21.9876 45.3288 22.5482 45.5133C23.0119 45.6659 23.5136 45.6872 23.9871 45.7488C25.7227 45.9742 27.4542 46.2451 29.193 46.4337C32.3859 46.7801 35.5862 46.9583 38.7844 47.199C38.9692 47.2129 39.879 47.1383 39.9999 47.4398" stroke="#FFBF3A" stroke-width="3.4" stroke-linecap="round"/>
<path d="M10 38.5605C14.6082 38.9742 19.2607 39.5588 23.7793 40.8028C24.051 40.8776 26.3418 41.1602 25.6091 42.0496C24.9985 42.7909 24.08 43.148 23.2982 43.4838C21.8824 44.092 20.4957 44.7798 19.106 45.4745C18.9033 45.5758 18.1976 45.8894 18.7581 46.0738C19.2218 46.2265 19.7236 46.2478 20.197 46.3093C21.9327 46.5348 23.6642 46.8057 25.4029 46.9943C28.5959 47.3406 31.7961 47.5188 34.9943 47.7595C35.1792 47.7734 36.0889 47.6989 36.2099 48.0003" stroke="#FFCD65" stroke-width="3.4" stroke-linecap="round"/>
<path d="M8.82511 33.3954C8.04755 35.9527 8.10933 38.1835 8.22501 39.14C8.25998 39.462 8.50776 39.7097 8.8298 39.7447C9.8017 39.8627 12.0916 39.9255 14.7011 39.1074C17.8523 38.1168 20.1834 35.8702 21.1109 32.9531C16.8975 33.1795 12.6812 33.431 8.82511 33.3954Z" fill="#043375"/>
<path d="M8.86241 33.2681C8.8492 33.3106 8.83795 33.3525 8.8252 33.3948C12.0045 36.7785 17.7835 36.2413 21.1109 32.9525C20.7173 31.3243 20.3659 29.6482 20.0299 27.9534C18.3302 27.6129 16.6494 27.2567 15.0167 26.8584C12.0997 27.7856 9.85307 30.1168 8.86241 33.2681Z" fill="#114997"/>
<path d="M19.0088 30.9919C19.6977 31.6572 20.3984 32.3109 21.1108 32.9528C21.7834 32.2851 22.4556 31.617 23.1274 30.9485C22.3965 28.9686 21.7184 26.9308 21.0449 24.8867C20.3642 26.9268 19.6784 28.9713 19.0088 30.9919Z" fill="#A2C9FF"/>
<path d="M17.0209 24.8418C16.3524 25.5135 15.6842 26.1858 15.0166 26.8585C16.3003 28.2833 17.631 29.661 19.0089 30.9918C20.3674 29.6365 21.7254 28.2807 23.0828 26.9244C21.0384 26.2509 19.0007 25.5727 17.0209 24.8418Z" fill="#C8DFFF"/>
<path d="M21.0459 28.9583C21.7321 29.6292 22.4257 30.2924 23.1271 30.9481C25.1571 29.6046 27.1723 28.2733 29.1617 26.9593C28.1529 24.5698 27.1688 22.1563 26.1338 19.7988C24.4432 22.8434 22.7362 25.9147 21.0459 28.9583Z" fill="#397DDB"/>
<path d="M27.1483 24.8971C26.8124 23.1941 26.4832 21.4851 26.1338 19.7995C24.4265 19.4698 22.7086 19.148 21.0094 18.8076C19.6953 20.7972 18.364 22.8122 17.0205 24.8423C18.3318 26.245 19.6735 27.6172 21.0459 28.959C23.0863 27.5996 25.124 26.244 27.1483 24.8971Z" fill="#A2C9FF"/>
<path d="M27.1484 24.8964C27.8223 25.5812 28.4935 26.2688 29.1618 26.9591C32.4749 22.1208 35.8784 17.1532 39.3146 12.1879C40.0312 11.1492 39.9822 9.71262 39.1181 8.85059C35.1262 13.2308 31.1397 17.6215 27.1552 22.0066C27.1528 22.9695 27.1492 23.9343 27.1484 24.8964Z" fill="#114997"/>
<path d="M38.4809 11.2554C39.2733 10.3019 39.5501 9.28232 39.1183 8.85107C38.2563 7.98698 36.819 7.93739 35.781 8.65457C30.8157 12.0907 25.8481 15.4943 21.0098 18.8073C23.0808 20.8125 25.1271 22.8423 27.1487 24.8969C30.9101 20.3728 34.6893 15.8115 38.4809 11.2554Z" fill="#2361B9"/>
</g>
<defs>
<linearGradient id="paint0_linear" x1="14.5312" y1="42.6562" x2="48.4687" y2="21.5156" gradientUnits="userSpaceOnUse">
<stop stop-color="#D7E8FF"/>
<stop offset="1" stop-color="#D7E8FF" stop-opacity="0"/>
</linearGradient>
<clipPath id="clip0">
<rect width="48" height="48" rx="24" fill="white"/>
</clipPath>
</defs>
</svg>
