<svg width="48" height="48" viewBox="0 0 48 48" fill="none" xmlns="http://www.w3.org/2000/svg">
<g clip-path="url(#clip0)">
<path d="M24 48C37.2548 48 48 37.2548 48 24C48 10.7452 37.2548 0 24 0C10.7452 0 0 10.7452 0 24C0 37.2548 10.7452 48 24 48Z" fill="#EEF5FF"/>
<path d="M24 57.2812C33.3198 57.2812 40.875 49.7261 40.875 40.4062C40.875 31.0864 33.3198 23.5312 24 23.5312C14.6802 23.5312 7.125 31.0864 7.125 40.4062C7.125 49.7261 14.6802 57.2812 24 57.2812Z" fill="url(#paint0_linear)"/>
<path d="M34.6406 46.5938C31.9902 54.2457 17.6947 52.5938 9.14122 52.5938C6.00731 52.5938 3.04577 51.8565 0.420113 50.5457C-3.61855 42.8283 -6.84738 34.7023 -9.20975 26.2988C-9.60625 24.8898 -9.97806 23.4721 -10.3251 22.0479C-10.7017 20.5033 -9.7307 18.9507 -8.17732 18.6101C-6.29843 18.1984 -4.42032 17.7859 -2.54143 17.3734C2.70426 16.223 7.94927 15.0717 13.195 13.9212C13.4239 13.871 13.6537 13.8207 13.8827 13.7705C14.193 13.7026 14.5034 13.634 14.8146 13.5663C15.689 13.3748 16.557 13.6086 17.2041 14.1335C17.6684 14.5085 18.0187 15.0335 18.1742 15.6574C18.179 15.6765 18.1838 15.6964 18.1894 15.7156C18.5277 17.0671 18.8947 18.4098 19.2904 19.743C19.7707 21.3594 20.2925 22.9615 20.8558 24.5484C22.682 29.6968 25.7812 41.9531 34.6406 46.5938Z" fill="#C8DFFF"/>
<path d="M-6.58463 29.8984C-7.09843 29.8984 -7.57338 29.5649 -7.72975 29.0477C-7.92096 28.415 -7.56322 27.747 -6.93052 27.5558L13.6535 21.3327C14.2865 21.1415 14.9542 21.4993 15.1454 22.132C15.3366 22.7647 14.9789 23.4326 14.3462 23.6238L-6.2379 29.8469C-6.35335 29.8817 -6.46995 29.8984 -6.58463 29.8984Z" fill="#A2C9FF"/>
<path d="M-3.55275 37.0786C-4.03608 37.0786 -4.49127 36.7837 -4.67232 36.3048C-4.90607 35.6866 -4.59449 34.9959 -3.97624 34.7621L15.0121 27.5816C15.6302 27.3478 16.3211 27.6595 16.5548 28.2777C16.7886 28.8959 16.477 29.5866 15.8587 29.8204L-3.12964 37.0009C-3.26908 37.0536 -3.41214 37.0786 -3.55275 37.0786Z" fill="#A2C9FF"/>
<path d="M0.635337 43.9C0.185152 43.9 -0.246112 43.6448 -0.449476 43.21C-0.729525 42.6113 -0.471243 41.8989 0.127466 41.6189L14.4375 35.3445C15.0361 35.0644 15.7485 35.3227 16.0286 35.9214C16.3087 36.5201 16.0504 37.2325 15.4517 37.5126L1.14167 43.787C0.977687 43.8637 0.805166 43.9 0.635337 43.9Z" fill="#FFBF3A"/>
<path d="M4.19784 49.8992C3.74765 49.8992 3.31639 49.644 3.11302 49.2092C2.83298 48.6105 3.09126 47.8981 3.68997 47.6181L15.458 42.113C16.0566 41.833 16.769 42.0913 17.0491 42.69C17.3292 43.2887 17.0709 44.0011 16.4722 44.2811L4.70417 49.7862C4.54019 49.8629 4.36767 49.8992 4.19784 49.8992Z" fill="#FFBF3A"/>
<path opacity="0.5" fill-rule="evenodd" clip-rule="evenodd" d="M19.1936 47.5186C11.3944 44.4555 3.75434 34.9763 2.45833 16.3125C2.45833 16.3125 1.95806 16.4127 1.17225 16.57C0.411309 18.9094 0 21.4067 0 24C0 35.6087 8.24203 45.2924 19.1936 47.5186Z" fill="#A2C9FF"/>
<path d="M33.1567 6.56268C34.1305 4.85015 34.9081 3.47725 35.3822 2.63859C35.7088 2.06048 36.4118 1.81189 37.0662 2.04727C40.0296 3.11795 42.8211 4.72979 45.2302 6.76076C45.7613 7.20964 45.8968 7.94368 45.5596 8.51563C44.8037 9.79837 44.0413 11.0957 43.2745 12.4042C41.1072 12.262 38.941 12.1156 36.7795 11.9706C35.5732 10.1713 34.3633 8.36856 33.1567 6.56268Z" fill="url(#paint1_linear)"/>
<path d="M33.1567 6.56268C34.1305 4.85015 34.9081 3.47725 35.3822 2.63859C35.7088 2.06048 36.4118 1.81189 37.0662 2.04727C40.0296 3.11795 42.8211 4.72979 45.2302 6.76076C45.7613 7.20964 45.8968 7.94368 45.5596 8.51563C44.8037 9.79837 44.0413 11.0957 43.2745 12.4042C41.1072 12.262 38.941 12.1156 36.7795 11.9706C35.5732 10.1713 34.3633 8.36856 33.1567 6.56268Z" fill="#114997"/>
<path d="M29.8891 35.5961C34.9782 26.6431 40.4189 17.2408 45.5601 8.51664C45.8973 7.9446 45.7616 7.21076 45.2306 6.76177C44.0264 5.74585 42.7259 4.83571 41.3565 4.04504C42.1167 6.54432 41.9341 9.18474 40.8488 11.5501C37.229 19.4445 33.4283 27.6671 29.8891 35.5961Z" fill="#043375"/>
<path d="M31.7418 9.04506C32.2457 8.16195 32.7204 7.3288 33.1564 6.56205C36.5074 8.52511 39.8987 10.4831 43.2743 12.4036C42.7949 13.2217 42.3136 14.0442 41.8313 14.8702C39.426 15.1493 37.0217 15.428 34.6199 15.7104C33.6636 13.4892 32.7028 11.2676 31.7418 9.04506Z" fill="#397DDB"/>
<path d="M19.5872 36.1069C21.1006 35.378 22.6147 34.6352 24.1295 33.881C24.2337 35.57 24.3476 37.2526 24.473 38.9277C23.2049 39.6925 21.9392 40.4438 20.6762 41.1793C20.1953 41.4592 19.5338 41.0772 19.5357 40.5209C19.5411 39.0592 19.5589 37.5875 19.5872 36.1069Z" fill="#397DDB"/>
<path d="M19.8923 40.7274C20.4943 38.863 21.1187 36.9691 21.7594 35.0529C21.0352 35.4077 20.3111 35.7595 19.5873 36.1081C19.559 37.5887 19.5412 39.0604 19.5357 40.522C19.5345 40.8004 19.6997 41.0348 19.925 41.1648C19.8405 41.1159 19.8163 40.9629 19.8923 40.7274Z" fill="#A2C9FF"/>
<path d="M19.587 36.1069C19.6273 34.0048 19.6886 31.8848 19.7654 29.7503C22.1726 29.4856 24.5774 29.2191 26.978 28.9467C27.9425 31.1619 28.9141 33.3777 29.8885 35.5949C28.0784 36.7285 26.273 37.8417 24.4727 38.9276C22.8493 37.9808 21.2187 37.0393 19.587 36.1069Z" fill="#5F9BED"/>
<path d="M21.1163 36.9846C21.708 35.197 22.3158 33.3875 22.9348 31.5622C21.878 30.9555 20.8209 30.3515 19.7654 29.7513C19.6886 31.8857 19.6273 34.0057 19.587 36.1079C20.097 36.3992 20.6068 36.6915 21.1163 36.9846Z" fill="#90BEFF"/>
<path d="M19.7655 29.7505C23.7298 22.9898 27.8175 15.9224 31.742 9.04568C32.7871 9.65599 33.8358 10.2662 34.8865 10.8754C35.0408 12.0692 35.1924 13.2643 35.3419 14.4607C36.4526 13.992 37.5635 13.5257 38.6745 13.0624C39.7274 13.6677 40.7804 14.2708 41.8314 14.8707C37.8382 21.7077 33.7616 28.7816 29.8886 35.595C28.841 34.981 27.7894 34.3676 26.7356 33.7557C26.574 32.5684 26.4161 31.3793 26.2614 30.1885C25.1527 30.6499 24.0439 31.1077 22.9349 31.5614C21.8781 30.9548 20.8211 30.3508 19.7655 29.7505Z" fill="#114997"/>
<path d="M22.9354 31.5615C26.8663 24.7925 30.9458 17.7315 34.8869 10.8754C36.1477 11.6066 37.4114 12.3361 38.6749 13.0625C34.708 19.9036 30.6327 26.9671 26.7361 33.7559C25.4714 33.0216 24.2035 32.2897 22.9354 31.5615Z" fill="#043375"/>
</g>
<defs>
<linearGradient id="paint0_linear" x1="14.5312" y1="42.6562" x2="48.4687" y2="21.5156" gradientUnits="userSpaceOnUse">
<stop stop-color="#D7E8FF"/>
<stop offset="1" stop-color="#D7E8FF" stop-opacity="0"/>
</linearGradient>
<linearGradient id="paint1_linear" x1="43.7859" y1="-0.157255" x2="33.7391" y2="17.2444" gradientUnits="userSpaceOnUse">
<stop stop-color="#FF726D"/>
<stop offset="0.0047" stop-color="#FF726C"/>
<stop offset="0.3252" stop-color="#FE8D3E"/>
<stop offset="0.6094" stop-color="#FDA01C"/>
<stop offset="0.844" stop-color="#FCAC07"/>
<stop offset="1" stop-color="#FCB000"/>
</linearGradient>
<clipPath id="clip0">
<rect width="48" height="48" rx="24" fill="white"/>
</clipPath>
</defs>
</svg>
