<svg width="48" height="48" viewBox="0 0 48 48" fill="none" xmlns="http://www.w3.org/2000/svg">
<g clip-path="url(#clip0)">
<path d="M24 48C37.2548 48 48 37.2548 48 24C48 10.7452 37.2548 0 24 0C10.7452 0 0 10.7452 0 24C0 37.2548 10.7452 48 24 48Z" fill="#EEF5FF"/>
<path d="M24 57.2812C33.3198 57.2812 40.875 49.7261 40.875 40.4062C40.875 31.0864 33.3198 23.5312 24 23.5312C14.6802 23.5312 7.125 31.0864 7.125 40.4062C7.125 49.7261 14.6802 57.2812 24 57.2812Z" fill="url(#paint0_linear)"/>
<path d="M32.6143 33.3589C34.5852 34.8913 36.5303 36.401 38.4354 37.8739C38.7023 38.0802 39.0367 38.1848 39.3868 38.1717C40.2553 38.1382 40.999 37.4052 41.0416 36.5389C41.2316 32.6092 41.332 28.6796 41.3427 24.75C38.4523 27.5684 35.5199 30.4555 32.6143 33.3589Z" fill="url(#paint1_linear)"/>
<path d="M39.72 21.2217C39.3624 21.2189 39.0161 21.3338 38.7355 21.5478C36.7326 23.0765 34.7129 24.6304 32.6909 26.1956C31.7257 27.3924 30.7581 28.5936 29.792 29.7967C30.741 30.9894 31.6831 32.1775 32.6143 33.3587C37.3313 33.2789 41.322 29.3903 41.3427 24.7498C41.3444 24.1014 41.3438 23.4531 41.3406 22.8047C41.3365 21.938 40.608 21.2289 39.72 21.2217Z" fill="url(#paint2_linear)"/>
<path d="M39.72 21.2217C39.3624 21.2189 39.016 21.3338 38.7354 21.5478C36.7326 23.0765 34.7129 24.6304 32.6909 26.1956C31.7257 27.3924 30.7581 28.5936 29.792 29.7967C30.741 30.9894 31.6831 32.1775 32.6143 33.3587C34.5852 34.8911 36.5304 36.4008 38.4354 37.8737C38.7024 38.08 39.0368 38.1847 39.3868 38.1715C40.2553 38.1381 40.999 37.405 41.0417 36.5387C41.263 31.9607 41.3627 27.3827 41.3407 22.8047C41.3364 21.938 40.608 21.2289 39.72 21.2217Z" fill="#114997"/>
<path d="M29.8126 23.3281C28.8536 25.4838 27.8851 27.6454 26.9199 29.8086C27.8698 31.9667 28.8078 34.1205 29.7208 36.2656C31.2851 36.2463 32.5855 34.94 32.615 33.3589C32.6564 30.9712 32.6819 28.5835 32.6915 26.1958C32.6979 24.6144 31.4043 23.3301 29.8126 23.3281Z" fill="url(#paint3_linear)"/>
<path d="M29.8126 23.3281C28.8536 25.4838 27.8851 27.6454 26.9199 29.8086C27.8698 31.9667 28.8078 34.1205 29.7208 36.2656C31.2851 36.2463 32.5855 34.94 32.615 33.3589C32.6564 30.9712 32.6819 28.5835 32.6915 26.1958C32.6979 24.6144 31.4043 23.3301 29.8126 23.3281Z" fill="#2361B9"/>
<path d="M9.65279 20.5039C8.06373 20.52 6.75545 21.7923 6.75095 23.3433C6.73951 27.562 6.83129 31.7808 7.02648 35.9995C7.10064 37.5503 8.43414 38.8662 9.98439 38.9248C11.8594 38.9931 13.7344 39.0479 15.6094 39.0888C15.4353 32.8808 15.3689 26.6728 15.4105 20.4648C13.4912 20.4747 11.572 20.4877 9.65279 20.5039Z" fill="#043375"/>
<path d="M26.9257 20.4458C25.966 20.4441 25.0064 20.4434 24.0469 20.4434V39.1816C24.9844 39.1816 25.9219 39.1783 26.8594 39.1714C28.4098 39.1596 29.6939 37.853 29.7204 36.2656C29.7854 31.9531 29.816 27.6406 29.8122 23.3281C29.8104 21.741 28.5148 20.4492 26.9257 20.4458Z" fill="#397DDB"/>
<path d="M26.8835 36.2905C26.8925 35.0902 26.9003 33.8897 26.9067 32.6894C25.5486 31.1346 24.1764 29.5726 22.7997 28.0103C24.1731 26.4499 25.5529 24.8867 26.9295 23.3266C26.9283 21.7364 25.636 20.4436 24.0469 20.4434C21.1681 20.4434 18.2892 20.4507 15.4104 20.4653C13.8214 20.4748 12.5194 21.7607 12.5163 23.334C12.5086 27.6113 12.5698 31.8886 12.6999 36.166C12.7503 37.739 14.059 39.054 15.6094 39.0894C18.4219 39.1509 21.2344 39.1816 24.0469 39.1816C25.5973 39.1811 26.8691 37.8811 26.8835 36.2905Z" fill="#114997"/>
<path d="M9.74734 32.5487C10.7006 32.5682 11.6539 32.5859 12.6072 32.6015C14.4729 30.7318 16.3727 28.8333 18.2861 26.9219C15.4093 27.8724 12.5392 28.8093 9.68359 29.7148C9.70066 30.6594 9.72184 31.6039 9.74734 32.5487Z" fill="#114997"/>
<path d="M9.63361 23.3384C9.62883 25.4639 9.64561 27.5894 9.68386 29.7149C10.6414 29.7279 11.5989 29.7397 12.5565 29.7501C13.4986 28.6912 14.4491 27.625 15.4043 26.554C14.439 25.4761 13.4752 24.4021 12.5162 23.334C11.5554 23.3354 10.5945 23.3368 9.63361 23.3384Z" fill="#2361B9"/>
<path d="M19.7266 26.9258C17.329 27.8803 14.9369 28.826 12.5566 29.7505C12.5702 30.7011 12.5873 31.6514 12.6076 32.6021C17.3741 32.6802 22.1405 32.7095 26.907 32.69C26.912 31.7296 26.9163 30.7694 26.9197 29.8092C24.5292 28.8553 22.1294 27.8901 19.7266 26.9258Z" fill="#2361B9"/>
<path d="M15.3989 23.3301C14.438 23.3311 13.4771 23.3321 12.5163 23.3335C12.5124 25.4722 12.5258 27.6108 12.5565 29.7495C15.6685 29.7834 18.7805 29.8035 21.8925 29.8099C19.7322 27.6442 17.558 25.4769 15.3989 23.3301Z" fill="#397DDB"/>
<path d="M15.3994 23.3306C15.3972 26.8845 18.3297 29.7987 21.8929 29.8103C23.5686 29.8137 25.2443 29.8131 26.92 29.8085C26.9277 27.6479 26.9309 25.4872 26.93 23.3266C23.0865 23.3254 19.243 23.3267 15.3994 23.3306Z" fill="#397DDB"/>
<path d="M22.2188 29.8125C22.2188 32.8673 19.7423 35.3438 16.6875 35.3438C13.6327 35.3438 11.1562 32.8673 11.1562 29.8125C11.1562 26.7577 13.6327 24.2812 16.6875 24.2812C19.7423 24.2812 22.2188 26.7577 22.2188 29.8125Z" fill="#C8DFFF"/>
<path d="M18.0827 32.5308C14.9881 32.5701 12.536 30.1282 12.6377 27.0612C12.6485 26.7203 12.587 26.3408 12.6562 26.0156C11.625 27.1406 11.1588 28.3594 11.1588 29.871C11.0662 32.9323 13.5321 35.3779 16.6331 35.3434C19.5 35.3434 21.1875 33.3281 21.4219 32.6719C20.2031 32.6719 19.7812 32.6719 18.0827 32.5308Z" fill="#A2C9FF"/>
<path d="M15.2197 32.3439V27.0572C15.2197 26.8142 15.493 26.6782 15.6791 26.8286L18.9496 29.472C19.0938 29.5885 19.0938 29.8127 18.9496 29.9292L15.6791 32.5726C15.493 32.7229 15.2197 32.587 15.2197 32.3439Z" fill="#2361B9"/>
<path d="M18.3355 14.7028C18.3622 11.5249 15.8928 8.98032 12.7972 9.07585C9.70298 9.17447 7.03035 11.8098 6.91195 14.906C6.79682 18.0028 9.35067 20.4952 12.5319 20.4821C15.7145 20.4647 18.3027 17.8817 18.3355 14.7028Z" fill="#2361B9"/>
<path d="M15.4796 14.7347C15.5049 13.1508 14.2648 11.8895 12.7003 11.9276C11.1361 11.9662 9.81552 13.2733 9.76789 14.8362C9.72055 16.3995 10.9817 17.6483 12.5676 17.6307C14.1539 17.6128 15.4535 16.3182 15.4796 14.7347Z" fill="#C8DFFF"/>
<path d="M13.309 16.1947C11.7263 16.2148 10.4722 14.9678 10.5243 13.4016C10.5298 13.2275 10.5519 13.0576 10.5874 12.8916C10.1007 13.4099 9.78964 14.0932 9.76789 14.8364C9.72055 16.3997 10.9817 17.6486 12.5676 17.6309C13.9777 17.6144 15.1613 16.59 15.4243 15.2491C14.8929 15.8208 14.1396 16.1828 13.309 16.1947Z" fill="#A2C9FF"/>
<path d="M29.7589 14.7031C29.713 11.5314 27.142 8.91333 24.0472 8.91211C20.9522 8.91352 18.3813 11.5317 18.3354 14.7031C18.2943 17.8755 20.8653 20.4412 24.0472 20.4434C27.229 20.4414 29.8 17.8757 29.7589 14.7031Z" fill="#2361B9"/>
<path d="M26.9033 14.684C26.8921 13.0935 25.6118 11.795 24.0474 11.7949C22.483 11.7951 21.2027 13.0938 21.1915 14.684C21.1809 16.2747 22.4612 17.5603 24.0474 17.5605C25.6335 17.5604 26.9138 16.2747 26.9033 14.684Z" fill="#C8DFFF"/>
<path d="M24.7633 16.1194C23.1804 16.1174 21.9026 14.8318 21.9121 13.2403C21.913 13.0638 21.9304 12.8914 21.9613 12.7236C21.4889 13.2396 21.1959 13.9285 21.1915 14.6839C21.1809 16.2746 22.4612 17.5602 24.0474 17.5605C25.4573 17.5605 26.6258 16.5435 26.8594 15.2002C26.3404 15.7661 25.5937 16.1202 24.7633 16.1194Z" fill="#A2C9FF"/>
<path d="M29.9448 10.3344L29.9001 10.3086C29.2775 9.94916 29.0643 9.15343 29.4237 8.53087L31.4401 5.03835C31.7996 4.4158 32.5953 4.20258 33.2179 4.56202L33.2626 4.58786C33.8852 4.94729 34.0984 5.74301 33.7389 6.36557L31.7225 9.85809C31.3635 10.4806 30.5674 10.6939 29.9448 10.3344Z" fill="#FFBF3A"/>
<path d="M29.945 10.3357L29.9002 10.3099C29.2777 9.95047 29.0644 9.15475 29.4239 8.53219L30.3965 6.84608C30.756 6.22352 31.5517 6.01031 32.1743 6.36974L32.219 6.39558C32.8416 6.75502 33.0548 7.55074 32.6953 8.1733L31.7227 9.85941C31.3636 10.4819 30.5675 10.6952 29.945 10.3357Z" fill="#FFCD65"/>
<path d="M31.2795 15.3136L31.2537 15.3583C30.8942 15.9809 31.1075 16.7767 31.73 17.1361L35.2226 19.1527C35.8451 19.5121 36.6409 19.2989 37.0003 18.6764L37.0261 18.6316C37.3856 18.009 37.1723 17.2132 36.5498 16.8538L33.0572 14.8372C32.4351 14.478 31.639 14.6914 31.2795 15.3136Z" fill="#FFBF3A"/>
<path d="M31.2791 15.3142L31.2533 15.359C30.8938 15.9815 31.107 16.7772 31.7296 17.1367L33.415 18.1106C34.0376 18.47 34.8333 18.2568 35.1927 17.6342L35.2186 17.5895C35.578 16.9669 35.3648 16.1712 34.7422 15.8118L33.0568 14.8379C32.4346 14.4783 31.6385 14.6917 31.2791 15.3142Z" fill="#FFCD65"/>
<path d="M32.4635 12.3527L32.4511 12.3065C32.2662 11.6163 32.6782 10.9061 33.3711 10.7204L37.2685 9.67608C37.9615 9.49041 38.6734 9.89954 38.8583 10.5897L38.8707 10.6359C39.0556 11.326 38.6436 12.0363 37.9507 12.222L34.0533 13.2663C33.3603 13.452 32.6485 13.0432 32.4635 12.3527Z" fill="#FFBF3A"/>
<path d="M32.4407 12.2913L32.454 12.3413C32.6401 13.0356 33.3535 13.4475 34.0479 13.2615L35.9283 12.7584C36.6227 12.5723 37.0346 11.8589 36.8485 11.1645L36.8351 11.1146C36.6491 10.4202 35.9356 10.0083 35.2413 10.1944L33.3609 10.6975C32.6667 10.8832 32.2546 11.597 32.4407 12.2913Z" fill="#FFCD65"/>
</g>
<defs>
<linearGradient id="paint0_linear" x1="14.5312" y1="42.6562" x2="48.4687" y2="21.5156" gradientUnits="userSpaceOnUse">
<stop stop-color="#D7E8FF"/>
<stop offset="1" stop-color="#D7E8FF" stop-opacity="0"/>
</linearGradient>
<linearGradient id="paint1_linear" x1="35.4572" y1="36.6251" x2="62.4763" y2="9.60599" gradientUnits="userSpaceOnUse">
<stop stop-color="#FC54FF"/>
<stop offset="0.2201" stop-color="#FD75FF"/>
<stop offset="0.7016" stop-color="#FEC8FF"/>
<stop offset="1" stop-color="white"/>
</linearGradient>
<linearGradient id="paint2_linear" x1="24.3613" y1="39.8343" x2="69.0519" y2="-4.85641" gradientUnits="userSpaceOnUse">
<stop stop-color="#FC54FF"/>
<stop offset="0.2201" stop-color="#FD75FF"/>
<stop offset="0.7016" stop-color="#FEC8FF"/>
<stop offset="1" stop-color="white"/>
</linearGradient>
<linearGradient id="paint3_linear" x1="13.056" y1="47.085" x2="43.5413" y2="16.5996" gradientUnits="userSpaceOnUse">
<stop stop-color="#FC54FF"/>
<stop offset="0.2201" stop-color="#FD75FF"/>
<stop offset="0.7016" stop-color="#FEC8FF"/>
<stop offset="1" stop-color="white"/>
</linearGradient>
<clipPath id="clip0">
<rect width="48" height="48" rx="24" fill="white"/>
</clipPath>
</defs>
</svg>
