<svg width="120" height="55" viewBox="0 0 120 55" fill="none" xmlns="http://www.w3.org/2000/svg">
<path d="M92.3779 45.2519C92.7106 44.8502 93.1014 44.5375 93.5485 44.3121C93.9957 44.0867 94.4974 43.974 95.0518 43.974C95.5462 43.974 95.9952 44.0431 96.4024 44.1812C96.8096 44.3194 97.1586 44.5448 97.4476 44.8574C97.7366 45.1683 97.962 45.5718 98.1183 46.0644C98.2765 46.557 98.3546 47.1569 98.3546 47.8603V54.1715H95.6826V47.8422C95.6826 47.5222 95.648 47.2532 95.5771 47.0369C95.5062 46.8206 95.4026 46.6461 95.2663 46.5134C95.13 46.3807 94.9627 46.2862 94.7628 46.2316C94.5628 46.1753 94.3356 46.148 94.0829 46.148C93.663 46.148 93.314 46.2298 93.0377 46.3934C92.7596 46.557 92.5415 46.777 92.3815 47.0551V54.1715H89.7076V41.2038C89.7076 40.5167 90.2657 39.9586 90.9528 39.9586H92.3815V45.2519H92.3779Z" fill="#F2B127"/>
<path d="M106.369 53.1558C106.054 53.5375 105.673 53.8338 105.222 54.0447C104.771 54.2537 104.24 54.3592 103.629 54.3592C103.137 54.3592 102.686 54.2901 102.279 54.1519C101.872 54.0138 101.521 53.7938 101.228 53.4939C100.936 53.194 100.708 52.8086 100.548 52.3378C100.388 51.8652 100.308 51.2999 100.308 50.6401V45.4086C100.308 44.7215 100.867 44.1635 101.554 44.1635H102.982V50.6601C102.982 50.9382 103.017 51.1745 103.088 51.3726C103.159 51.5707 103.257 51.7289 103.384 51.8489C103.511 51.9688 103.66 52.0561 103.833 52.1124C104.006 52.1688 104.197 52.1961 104.407 52.1961C104.889 52.1961 105.28 52.1124 105.584 51.947C105.885 51.7798 106.118 51.5489 106.278 51.2526V45.4104C106.278 44.7233 106.836 44.1653 107.523 44.1653H108.961V54.1774H106.443L106.369 53.1558Z" fill="#F2B127"/>
<path d="M120 49.26C120 50.0126 119.92 50.6997 119.761 51.3232C119.601 51.9466 119.359 52.4829 119.033 52.9337C118.71 53.3845 118.304 53.7335 117.817 53.9843C117.33 54.2333 116.759 54.3588 116.105 54.3588C115.525 54.3588 115.023 54.2497 114.602 54.0298C114.18 53.8116 113.813 53.5044 113.506 53.11L113.386 54.1734H110.979V41.2056C110.979 40.5185 111.537 39.9604 112.224 39.9604H113.653V45.0592C113.949 44.7138 114.296 44.4466 114.694 44.2594C115.093 44.0704 115.556 43.9777 116.087 43.9777C116.741 43.9777 117.314 44.1049 117.803 44.3576C118.294 44.6102 118.703 44.9629 119.03 45.4119C119.357 45.8608 119.601 46.3989 119.761 47.0224C119.92 47.6459 120 48.3275 120 49.0673V49.26V49.26ZM117.327 49.0655C117.327 48.6711 117.299 48.2966 117.243 47.9403C117.188 47.5859 117.087 47.275 116.943 47.0096C116.798 46.7443 116.601 46.5352 116.356 46.3807C116.109 46.2262 115.794 46.1499 115.412 46.1499C114.962 46.1499 114.594 46.2407 114.311 46.4225C114.027 46.6043 113.807 46.8624 113.655 47.1951V51.1468C113.809 51.4795 114.027 51.7394 114.311 51.9248C114.594 52.1102 114.967 52.2029 115.431 52.2029C115.807 52.2029 116.118 52.1284 116.361 51.9812C116.605 51.8339 116.799 51.6304 116.945 51.3704C117.09 51.1105 117.19 50.8015 117.245 50.4397C117.301 50.078 117.328 49.6854 117.328 49.26V49.0655H117.327Z" fill="#F2B127"/>
<path d="M56.4788 17.7927C56.0334 17.9254 55.6663 18.1108 55.3791 18.3508C55.0919 18.5889 54.8792 18.8706 54.741 19.1942C54.6029 19.5178 54.5338 19.8704 54.5338 20.2539C54.5338 20.8284 54.7356 21.301 55.1391 21.6718C55.5427 22.0426 56.0953 22.2298 56.7951 22.2298C57.1877 22.2298 57.5513 22.1826 57.8857 22.0862C58.2202 21.9899 58.5201 21.8663 58.7855 21.7118C59.0509 21.5573 59.2817 21.3791 59.4781 21.1774C59.6744 20.9756 59.8307 20.7684 59.947 20.5557V17.5928H58.0548C57.4495 17.5928 56.9241 17.66 56.4788 17.7927Z" fill="#006CB0"/>
<path d="M43.4984 13.5319C43.3766 13.1393 43.1912 12.7994 42.9403 12.5122C42.6913 12.225 42.3714 12.0032 41.9842 11.8432C41.597 11.6833 41.1371 11.6051 40.6063 11.6051C40.1065 11.6051 39.6684 11.6924 39.2921 11.8687C38.9158 12.0432 38.5905 12.2886 38.3196 12.6012C38.0488 12.9139 37.8288 13.2883 37.658 13.7246C37.4871 14.1608 37.3653 14.6426 37.2908 15.1751H43.6947V14.808C43.6874 14.3499 43.6202 13.9245 43.4984 13.5319Z" fill="#006CB0"/>
<path d="M7.50182 31.5239L5.51684 33.5089V39.8092H0V12.514C0 11.3942 0.90887 10.4854 2.0286 10.4854H5.51684V26.7323L6.58568 25.3581L11.8735 19.1542H18.4973L11.0337 27.7648L19.1481 39.811H12.8096L7.50182 31.5239Z" fill="#006CB0"/>
<path d="M82.0365 13.8083C82.0365 12.9812 82.3128 12.2995 82.8672 11.7651C83.4216 11.2307 84.1742 10.9635 85.1303 10.9635C85.6011 10.9635 86.0283 11.0326 86.41 11.1744C86.7917 11.3143 87.1171 11.5125 87.3843 11.7669C87.6515 12.0214 87.8587 12.3232 88.0041 12.674C88.1496 13.0248 88.2241 13.4029 88.2241 13.8101C88.2241 14.23 88.1514 14.6153 88.0041 14.9644C87.8569 15.3152 87.6515 15.6169 87.3843 15.8714C87.1171 16.1259 86.7917 16.324 86.41 16.464C86.0283 16.604 85.6011 16.6748 85.1303 16.6748C84.6595 16.6748 84.2323 16.6058 83.8506 16.464C83.4689 16.324 83.1435 16.1259 82.8763 15.8714C82.6091 15.6169 82.4019 15.3152 82.2564 14.9644C82.1092 14.6117 82.0365 14.2282 82.0365 13.8083ZM87.8969 39.8092H82.3601V21.181C82.3601 20.0613 83.2689 19.1524 84.3887 19.1524H87.8969V39.8092V39.8092Z" fill="#006CB0"/>
<path d="M93.9481 39.8095V24.2769H90.8743V21.1813C90.8743 20.0616 91.7831 19.1527 92.9029 19.1527H93.9481V17.3586C93.9481 16.188 94.1226 15.15 94.4734 14.2466C94.8242 13.3432 95.3259 12.5834 95.9821 11.9653C96.6383 11.3473 97.4327 10.8802 98.3688 10.5621C99.305 10.2439 100.357 10.084 101.528 10.084C102.024 10.084 102.504 10.1222 102.97 10.1985C103.433 10.2748 103.889 10.3639 104.335 10.4657L104.276 14.7429C103.818 14.6283 103.259 14.572 102.597 14.572C101.604 14.572 100.837 14.8101 100.296 15.2882C99.7539 15.7662 99.4849 16.4552 99.4849 17.3604V19.1545H103.589V24.2787H99.4849V39.8113H93.9481V39.8095Z" fill="#006CB0"/>
<path d="M69.95 19.1524V15.5351L70.6262 15.5297H75.4668V19.1524H78.9987V24.2766H75.4687V33.5089C75.4687 33.9416 75.5141 34.2978 75.6032 34.5778C75.6922 34.8577 75.8268 35.0777 76.0049 35.2358C76.183 35.3958 76.403 35.503 76.6629 35.5612C76.9247 35.6193 77.2319 35.6466 77.5881 35.6466C77.919 35.6466 78.2207 35.6339 78.4952 35.6084C78.7697 35.583 79.0078 35.5521 79.2114 35.5139V39.6947C78.7533 39.8347 78.2534 39.9528 77.7136 40.0474C77.1719 40.1437 76.5593 40.191 75.8722 40.191C74.9688 40.191 74.1544 40.0801 73.4292 39.8565C72.7039 39.6329 72.084 39.2803 71.5678 38.7967C71.0515 38.3132 70.6553 37.6825 70.3753 36.9063C70.0954 36.1301 69.9555 35.194 69.9555 34.0997V24.2748H66.9398V21.181C66.9398 20.0613 67.8487 19.1524 68.9684 19.1524H69.95V19.1524Z" fill="#006CB0"/>
<path d="M32.3413 18.9602C32.1777 18.9202 31.9959 18.882 31.7759 18.8475C31.636 18.8256 31.4978 18.8111 31.3633 18.7984C31.187 18.782 31.0161 18.7711 30.8489 18.7711C30.618 18.7711 30.3963 18.7893 30.1781 18.8147C29.9091 18.8475 29.6474 18.8947 29.3965 18.9674C28.9584 19.0929 28.5513 19.2783 28.1768 19.5255C27.4134 20.029 26.7699 20.7252 26.2482 21.6159L26.0955 19.1528H22.9126C21.7929 19.1528 20.884 20.0617 20.884 21.1814V39.8097H26.4009V26.2929C26.719 25.6058 27.2116 25.0805 27.8805 24.7188C28.5494 24.3552 29.4238 24.1753 30.5053 24.1753C30.798 24.1753 31.1325 24.1916 31.5069 24.2225C31.8832 24.2552 32.2104 24.2898 32.4903 24.328L32.5085 23.0501L32.5194 22.2485L32.5667 19.022C32.503 18.9983 32.4194 18.9802 32.3413 18.9602Z" fill="#006CB0"/>
<path d="M57.4805 0.189928C53.0107 -0.597154 48.6881 1.11698 45.9178 4.31438C44.2946 3.38733 42.4078 2.82929 40.3101 2.86382C35.5076 2.94562 31.225 6.1812 29.8999 10.7983C29.2182 13.1722 29.3691 15.5371 30.1417 17.6384C30.3671 17.6112 30.5979 17.593 30.836 17.593C31.0069 17.593 31.1869 17.6039 31.3686 17.6202C31.5086 17.633 31.6504 17.6493 31.7958 17.6711C32.023 17.7075 32.2102 17.7475 32.3811 17.7875C32.3575 17.5221 32.3411 17.2567 32.3411 16.9822V16.3605C32.3411 15.0536 32.5302 13.8575 32.9064 12.7687C33.2827 11.6799 33.8189 10.7419 34.5151 9.95665C35.2113 9.17139 36.0548 8.55699 37.0491 8.11709C38.0416 7.67538 39.154 7.45544 40.3864 7.45544C41.6298 7.45544 42.7222 7.65902 43.6675 8.06802C44.6127 8.47701 45.407 9.0496 46.0487 9.78942C46.6904 10.5274 47.1739 11.4163 47.4974 12.4579C47.821 13.4994 47.9828 14.6573 47.9828 15.9316V17.8911H37.0073C37.0818 18.4546 37.2327 18.9636 37.4617 19.4198C37.6907 19.8761 37.9816 20.2669 38.3378 20.5904C38.6941 20.914 39.1104 21.1667 39.5885 21.3466C40.0665 21.5266 40.6028 21.6175 41.1972 21.6175C42.037 21.6175 42.8113 21.4611 43.5239 21.1467C44.2346 20.834 44.8454 20.3469 45.3561 19.6888C45.3598 19.6961 45.3634 19.7016 45.3671 19.707H49.935C49.9823 18.9908 50.1386 18.3383 50.4149 17.7602C50.7494 17.0586 51.2511 16.4642 51.92 15.9752C52.5889 15.4862 53.4196 15.1154 54.414 14.8591C55.4064 14.6046 56.5625 14.4774 57.8786 14.4774H59.9344V13.4903C59.9344 12.6942 59.7308 12.0561 59.3219 11.5781C58.9129 11.1 58.2676 10.8619 57.386 10.8619C56.6116 10.8619 56.0027 11.0473 55.5628 11.4199C55.1229 11.7926 54.9011 12.3015 54.9011 12.9487H50.2931C50.2931 12.2052 50.4658 11.4981 50.8112 10.8292C51.1566 10.1602 51.6474 9.57674 52.2854 9.07686C52.9234 8.57698 53.6923 8.18253 54.5957 7.88988C55.4991 7.59722 56.508 7.45181 57.6223 7.45181C58.6202 7.45181 59.5454 7.57904 60.3943 7.83353C61.2432 8.08801 61.9776 8.46792 62.592 8.97325C63.2082 9.47859 63.6881 10.1093 64.0334 10.8692C64.3788 11.629 64.5515 12.5124 64.5515 13.5212L64.5751 18.1274H65.8166C66.3329 17.8584 66.9891 16.9386 67.3254 15.688L67.5253 14.69L67.6544 14.0684C68.5287 7.5027 64.0716 1.35146 57.4805 0.189928Z" fill="#006CB0"/>
<path d="M56.0119 39.8165H36.5657C35.1569 39.8165 34.0154 38.675 34.0154 37.2663V24.7693H53.4598C54.8703 24.7693 56.0137 25.9126 56.0137 27.3232V39.8165H56.0119Z" fill="#F2B127"/>
<path d="M65.6097 24.2367V39.6202L57.8861 33.5199C57.5371 33.2436 57.3317 32.8255 57.3262 32.3802L57.3153 31.3241C57.3098 30.8914 57.4953 30.4788 57.8225 30.1952L65.6097 24.2367Z" fill="#F2B127"/>
</svg>
